<?xml version="1.0" encoding="utf-8"?>
<svg version="1.1" id="Standard_version_-_GREY" xmlns="http://www.w3.org/2000/svg" xmlns:xlink="http://www.w3.org/1999/xlink"
	 x="0px" y="0px" viewBox="0 0 573 380" style="enable-background:new 0 0 573 380;" xml:space="preserve">
<style type="text/css">
	.st0{fill-rule:evenodd;clip-rule:evenodd;fill:#39454D;}
	.st1{fill:#39454D;}
</style>
<path id="S_2_" class="st0" d="M568.4,311.9c-1.5,1.2-3.6,1.2-5-0.2c-1.2-1.2-2.6-2.2-4.2-3.1c-2.6-1.4-5.7-2.1-9.4-2.1
	c-1.9,0-3.8,0.3-5.7,0.9s-3.7,1.5-5.3,2.6c-1.6,1.2-2.9,2.7-3.8,4.5c-1,1.8-1.5,3.9-1.5,6.3s0.5,4.4,1.4,6s2.2,2.9,3.7,4
	s3.3,2,5.3,2.7s4,1.4,6.2,2.2c2.6,0.9,5.3,1.8,8,2.8s5.1,2.3,7.2,3.9c2.1,1.6,3.9,3.7,5.3,6.1c1.4,2.5,2,5.6,2,9.4s-0.7,7.1-2.2,9.8
	c-1.4,2.8-3.3,5-5.6,6.8s-5,3.1-7.9,4c-3,0.9-6,1.3-9,1.3c-2.3,0-4.6-0.2-6.9-0.7c-2.3-0.5-4.5-1.2-6.6-2.1s-4-2.1-5.8-3.5
	c-0.6-0.5-1.2-1-1.7-1.5c-1.7-1.7-1.6-4.5,0.3-5.9l0.3-0.2c1.6-1.2,3.8-1,5.1,0.5c1.4,1.5,3,2.9,4.9,4c3,1.8,6.5,2.7,10.5,2.7
	c1.9,0,3.9-0.3,5.9-0.9s3.8-1.5,5.4-2.8c1.6-1.3,2.9-2.8,4-4.6c1-1.8,1.6-4,1.6-6.4c0-2.6-0.5-4.9-1.6-6.6c-1-1.8-2.4-3.2-4.1-4.4
	c-1.7-1.2-3.7-2.2-5.9-3s-4.6-1.6-7-2.4c-2.5-0.8-5-1.7-7.4-2.7s-4.6-2.3-6.6-3.9c-1.9-1.6-3.5-3.6-4.7-6s-1.8-5.3-1.8-8.7
	c0-3.7,0.7-6.8,2.2-9.5s3.4-4.8,5.8-6.6c2.4-1.7,5-3,7.8-3.8c2.9-0.8,5.7-1.2,8.5-1.2c5.2,0,9.6,0.9,13.2,2.7c1.9,1,3.6,2,5,3.1
	C570.2,307.5,570.3,310.4,568.4,311.9z"/>
<path id="G_2_" class="st0" d="M507.2,313.4c-1.3,1.3-3.3,1.3-4.6,0.2c-2.1-1.8-4.5-3.2-7.2-4.4c-3.7-1.5-7.8-2.3-12.6-2.3
	c-4.9,0-9.3,0.9-13.2,2.7c-3.9,1.8-7.2,4.2-9.9,7.2c-2.7,3-4.8,6.6-6.3,10.6s-2.2,8.2-2.2,12.7c0,4.4,0.7,8.7,2.2,12.7
	s3.6,7.5,6.3,10.5c2.7,3,6,5.4,9.9,7.2c3.9,1.8,8.3,2.7,13.2,2.7c4.3,0,8.2-0.5,11.8-1.4c2.6-0.7,4.9-1.5,6.8-2.4
	c1.2-0.6,1.9-1.8,1.9-3.1v-21.1h-15.1c-1.9,0-3.4-1.5-3.4-3.4s1.5-3.4,3.4-3.4h19.4c1.9,0,3.4,1.5,3.4,3.4v29c0,1.3-0.7,2.4-1.8,3
	c-3.6,2-7.5,3.5-11.6,4.6c-4.8,1.2-9.8,1.8-14.9,1.8c-5.7,0-11-1-15.9-3s-9.1-4.8-12.6-8.3s-6.3-7.8-8.2-12.6c-2-4.9-3-10.2-3-16
	s1-11.1,3-16s4.8-9.1,8.3-12.6s7.7-6.3,12.6-8.3c4.8-2,10.1-3,15.8-3c6.1,0,11.4,0.9,15.9,2.7c3.3,1.3,6.2,3,8.7,5
	c1.6,1.3,1.7,3.7,0.3,5.1L507.2,313.4z"/>
<path id="N_2_" class="st0" d="M420.2,366.8h0.2v-61c0-2.1,1.7-3.9,3.9-3.9l0,0c2.1,0,3.9,1.7,3.9,3.9v68.4c0,2.1-1.7,3.9-3.9,3.9
	H422c-2.1,0-4.2-1.1-5.4-2.8l-42.4-62.6H374v61.6c0,2.1-1.7,3.9-3.9,3.9c-2.1,0-3.9-1.7-3.9-3.9v-68.4c0-2.1,1.7-3.9,3.9-3.9h2.4
	c2.1,0,4.1,1.1,5.3,2.8L420.2,366.8z"/>
<path id="I_5_" class="st0" d="M341.9,378.1L341.9,378.1c-2.1,0-3.9-1.7-3.9-3.9v-68.4c0-2.1,1.7-3.9,3.9-3.9c2.1,0,3.9,1.7,3.9,3.9
	v68.4C345.8,376.4,344,378.1,341.9,378.1"/>
<path id="H_2_" class="st0" d="M264.4,302L264.4,302c2.1,0,3.9,1.7,3.9,3.9V335h41.5v-29.1c0-2.1,1.7-3.9,3.9-3.9
	c2.1,0,3.9,1.7,3.9,3.9v68.4c0,2.1-1.7,3.9-3.9,3.9c-2.1,0-3.9-1.7-3.9-3.9v-32.2h-41.5v32.2c0,2.1-1.7,3.9-3.9,3.9
	s-3.9-1.7-3.9-3.9v-68.4C260.6,303.7,262.3,302,264.4,302"/>
<path id="T_2_" class="st0" d="M220,378.1h-0.9c-1.9,0-3.4-1.5-3.4-3.4v-65.8h-22c-1.9,0-3.4-1.5-3.4-3.4s1.5-3.4,3.4-3.4h52.1
	c1.9,0,3.4,1.5,3.4,3.4s-1.5,3.4-3.4,3.4h-22.4v65.8C223.4,376.6,221.9,378.1,220,378.1"/>
<path id="R_2_" class="st0" d="M167.5,346c11.8-5.1,18.6-19.9,10.1-34.4c-3.1-5.4-10.8-9.7-17-9.7h-36.8V378h18v-30.2h6.2l13.7,25.4
	c1.6,3,4.7,4.9,8.1,4.9h15L167.5,346z M141.6,333.7v-18.8H154c7.5,0,13,8.9,6.5,16.8c-1.1,1.3-2.8,2.1-4.5,2.1h-14.4V333.7z"/>
<rect id="I_4_" x="88.6" y="302" class="st0" width="17.8" height="76.1"/>
<path id="A_2_" class="st0" d="M63,378.1h17.5L52.4,310c-2-4.8-6.7-8-11.9-8s-9.9,3.2-11.9,8L0.4,378.1h18.4l6.2-16h31.6L63,378.1z
	 M30.6,347.9l10.1-26.1L51,347.9H30.6z"/>
<path id="LOGO_2_" class="st1" d="M371.4,35.1C348.7,12.5,318.6,0,286.5,0s-62.2,12.5-84.9,35.1C179,57.8,166.5,87.9,166.5,120
	s12.5,62.2,35.1,84.9s52.8,35.1,84.9,35.1s62.2-12.5,84.9-35.1s35.1-52.8,35.1-84.9S394,57.8,371.4,35.1z M252,154.4l27.1-63.8
	c1.8-4.2,5.4-4.9,7.4-4.9s5.6,0.6,7.4,4.9l27.1,63.8H252z M357.8,190.1L312.3,82.7c-4.8-11.4-15.3-17.1-25.8-17.1
	s-20.9,5.7-25.8,17.1L215.1,190c-17.7-18-28.7-42.8-28.7-70.1c0-55.2,44.8-100,100-100s100,44.8,100,100
	C386.5,147.3,375.6,172,357.8,190.1z"/>
</svg>
